<?xml version="1.0" encoding="UTF-8" standalone="no"?>
<svg
   xmlns:dc="http://purl.org/dc/elements/1.1/"
   xmlns:cc="http://creativecommons.org/ns#"
   xmlns:rdf="http://www.w3.org/1999/02/22-rdf-syntax-ns#"
   xmlns:svg="http://www.w3.org/2000/svg"
   xmlns="http://www.w3.org/2000/svg"
   xmlns:sodipodi="http://sodipodi.sourceforge.net/DTD/sodipodi-0.dtd"
   xmlns:inkscape="http://www.inkscape.org/namespaces/inkscape"
   inkscape:version="1.0 (4035a4f, 2020-05-01)"
   sodipodi:docname="logo.svg"
   id="svg837"
   version="1.1"
   height="50"
   width="50"
   viewBox="0 0 50 50">
  <metadata
     id="metadata843">
    <rdf:RDF>
      <cc:Work
         rdf:about="">
        <dc:format>image/svg+xml</dc:format>
        <dc:type
           rdf:resource="http://purl.org/dc/dcmitype/StillImage" />
        <dc:title></dc:title>
      </cc:Work>
    </rdf:RDF>
  </metadata>
  <defs
     id="defs841" />
  <sodipodi:namedview
     inkscape:current-layer="svg837"
     inkscape:window-maximized="1"
     inkscape:window-y="25"
     inkscape:window-x="0"
     inkscape:cy="32.867099"
     inkscape:cx="26.151125"
     inkscape:zoom="8.7921299"
     inkscape:snap-page="true"
     inkscape:snap-bbox="true"
     fit-margin-bottom="0"
     fit-margin-right="0"
     fit-margin-left="0"
     fit-margin-top="0"
     showgrid="false"
     id="namedview839"
     inkscape:window-height="922"
     inkscape:window-width="1680"
     inkscape:pageshadow="2"
     inkscape:pageopacity="0"
     guidetolerance="10"
     gridtolerance="10"
     objecttolerance="10"
     borderopacity="1"
     bordercolor="#666666"
     pagecolor="#ffffff" />
  <style
     id="style833">
    /* Note that the color of the text is set with the    *
     * fill property, the color property is for HTML only */
    @font-face {
        font-family: 'Permanent Marker';
        font-style: normal;
        font-weight: 400;
        src: url(https://fonts.gstatic.com/s/permanentmarker/v10/Fh4uPib9Iyv2ucM6pGQMWimMp004La2Cfw.woff2) format('woff2');
        unicode-range: U+0000-00FF, U+0131, U+0152-0153, U+02BB-02BC, U+02C6, U+02DA, U+02DC, U+2000-206F, U+2074, U+20AC, U+2122, U+2191, U+2193, U+2212, U+2215, U+FEFF, U+FFFD;
    }
    text { 
        font: bold 50px sans-serif;
        font-family: 'Permanent Marker';
        fill: red; 
    }
  </style>
  <path
     d="M 5.6835986,41.823924 Q 5.3730456,41.886035 5.1246032,41.38915 4.8761609,40.830155 4.5656079,40.33327 H 5.2488245 Q 4.8140503,38.966837 5.0003821,37.848846 5.2488245,36.668745 5.5593776,35.612864 5.8699311,34.494875 6.0562625,33.501106 6.3047042,32.445224 5.8699311,31.327233 q 0.3105523,0.186333 0.4347731,-0.124226 0.1863325,-0.372664 0.2484431,-0.869549 0.1242259,-0.558995 0.062114,-1.11799 0,-0.621106 -0.062114,-0.99377 0.8074382,-1.925428 1.2422113,-3.975078 0.4968848,-2.049651 0.8695487,-4.03719 0.3726639,-2.049648 0.8074383,-3.912968 0.4968848,-1.925427 1.2422104,-3.602414 0.86955,-0.124222 1.801209,0.248442 0.993769,0.310553 1.304322,0.807438 1.925429,-1.490654 3.416083,-3.602414 1.490655,-2.1117605 2.981309,-4.0992998 1.552765,-2.0496499 3.478193,-3.6024148 1.925429,-1.55276479 4.782517,-1.86331829 1.490655,1.05587999 3.353972,2.29809239 1.863319,1.1801014 3.04342,2.9813089 0.496885,0.310553 0.93166,0.6832166 0.496884,0.310553 0.993769,0.621106 v 0.931659 q 0.869548,0.8074378 1.428543,1.925429 0.621107,1.055879 1.055881,2.298091 0.496885,1.180101 0.931658,2.422314 0.434775,1.242211 0.99377,2.298091 -0.124225,0.372665 -0.124225,0.683217 0.06212,0.248442 0.124225,0.558995 0.124227,0.248443 0.186332,0.621107 0.06211,0.310553 0.06211,0.807438 -0.248442,3.291861 -2.17387,5.34151 -1.863319,1.98754 -4.596186,3.291863 -2.670755,1.242213 -5.714175,2.173872 -3.043418,0.869547 -5.527842,1.925427 0,0.248444 0.248441,0.248444 0.310554,0 0.186333,0.372664 1.863317,1.11799 2.857087,1.801206 1.05588,0.683218 1.925428,1.180102 0.931659,0.434774 1.98754,0.745328 1.11799,0.310552 3.043418,0.745327 1.92543,0.434773 2.981309,0.745327 1.117992,0.248442 1.987539,0.434773 0.869549,0.124226 1.863318,0.248443 0.99377,0.124225 2.670758,0.310553 0.683215,0.683216 1.11799,1.614874 0.434774,0.93166 0.621105,1.86332 0.186331,0.931658 0.06212,1.801207 -0.06212,0.807438 -0.496885,1.304322 0.06211,0.248443 0.310554,0.248443 0.310552,-0.06211 0.621106,0 -0.434775,0.310553 -0.745328,0.745327 -0.310553,0.434773 -0.621106,0.869549 -0.310552,0.434774 -0.745326,0.807438 -0.372664,0.372663 -0.99377,0.434775 -2.235983,0.869547 -5.714176,0.06212 -3.478194,-0.807439 -8.881817,-2.857087 -2.670755,-0.99377 -4.34774,-1.801208 -1.676987,-0.807438 -2.919199,-1.552765 -1.242212,-0.807438 -2.298093,-1.676987 -1.05588,-0.931658 -2.422312,-2.173871 -0.186332,0.06212 -0.248443,0.248444 0,0.186331 -0.186333,0.248441 -0.310551,2.484424 -0.993769,4.03719 -0.621106,1.552764 -1.863317,3.167641 -0.993774,-0.186336 -1.366438,0.186327 -0.310553,0.372664 -0.807438,0.683217 Q 9.658682,47.662324 9.3481298,47.475986 9.0375712,47.351772 8.7891282,47.165436 8.5406864,46.979104 8.230133,46.792772 7.9195808,46.606441 7.2363634,46.668547 7.0500321,46.109551 6.8637007,45.612666 6.6773682,45.053671 5.8699311,45.115781 6.0562625,44.556786 5.9941571,44.184122 5.9320441,43.749349 5.8078244,43.438795 5.6835986,43.066132 5.5593827,42.693468 5.4972698,42.320804 5.6836087,41.823919 Z M 26.42854,13.439381 q -0.807439,1.1801 -1.801208,2.17387 -0.99377,0.931659 -1.987539,1.987539 -0.93166,0.99377 -1.676987,2.235983 -0.745327,1.1801 -1.05588,2.857087 2.608646,-0.310553 5.465733,-1.428544 2.857087,-1.180102 5.403622,-2.235982 -0.310552,-2.298092 -1.614876,-3.664525 -1.304322,-1.428543 -2.732865,-1.925428 z"
     style="font-style:normal;font-variant:normal;font-weight:bold;font-stretch:normal;font-size:50px;line-height:normal;font-family:'Permanent Marker';text-anchor:middle;fill:#ff0000;stroke-width:1.27203"
     id="path845" />
</svg>
