<?xml version="1.0" encoding="UTF-8" standalone="no"?>
<svg
   xmlns:dc="http://purl.org/dc/elements/1.1/"
   xmlns:cc="http://creativecommons.org/ns#"
   xmlns:rdf="http://www.w3.org/1999/02/22-rdf-syntax-ns#"
   xmlns:svg="http://www.w3.org/2000/svg"
   xmlns="http://www.w3.org/2000/svg"
   xmlns:sodipodi="http://sodipodi.sourceforge.net/DTD/sodipodi-0.dtd"
   xmlns:inkscape="http://www.inkscape.org/namespaces/inkscape"
   inkscape:version="1.0 (4035a4f, 2020-05-01)"
   sodipodi:docname="divider.svg"
   id="svg835"
   version="1.1"
   viewBox="0 0 334.99924 11.999543"
   height="11.999543"
   width="334.99924">
  <metadata
     id="metadata841">
    <rdf:RDF>
      <cc:Work
         rdf:about="">
        <dc:format>image/svg+xml</dc:format>
        <dc:type
           rdf:resource="http://purl.org/dc/dcmitype/StillImage" />
        <dc:title></dc:title>
      </cc:Work>
    </rdf:RDF>
  </metadata>
  <defs
     id="defs839" />
  <sodipodi:namedview
     inkscape:current-layer="svg835"
     inkscape:window-maximized="1"
     inkscape:window-y="25"
     inkscape:window-x="0"
     inkscape:cy="5.9995568"
     inkscape:cx="167.4996"
     inkscape:zoom="2.3104478"
     fit-margin-bottom="0"
     fit-margin-right="0"
     fit-margin-left="0"
     fit-margin-top="0"
     showgrid="false"
     id="namedview837"
     inkscape:window-height="922"
     inkscape:window-width="1680"
     inkscape:pageshadow="2"
     inkscape:pageopacity="0"
     guidetolerance="10"
     gridtolerance="10"
     objecttolerance="10"
     borderopacity="1"
     bordercolor="#666666"
     pagecolor="#ffffff" />
  <path
     style="stroke-width:1.73205"
     id="path833"
     d="m 1.0836026,3.1131272 c 0.929,-1.77 1.73,-2.28300002 4.23,-1.71 0.161,0.039 0.966,-0.18 1.057,0 0.27,0.534 1.87,1.593 2.643,1.71 -0.014,-0.003 1.9960004,-2.13600002 2.6440004,-0.855 0.857,1.689 4.417,0.471 6.874,0.855 0.832,0.126 1.894,0.798 2.643,0.852 0.412,0.03 2.089,-1.947 2.643,-0.852 0.42,0.825 1.4,0.873 3.172,0.852 1.165,-0.018 2.544,0.21 3.702,0 1.08,-0.198 1.615,-0.84 2.643,-0.852 2.214,-0.036 4.193,0.906 6.345,0.852 1.003,-0.03 2.167,-0.756 3.171,-0.852 3.173,-0.315 7.626,0.513 10.574,1.701 0.774,0.315 1.843,-0.009 2.643,0 0.588,0.012 0.324,-0.783 0.53,-0.849 0.199,-0.066 1.418,0.798 2.114,0.849 1.264,0.099 2.367,-0.144 3.7,0 1.101,0.123 2.164,0.924 3.173,0.855 1.936,-0.135 3.693,-1.62 5.815,-1.704 1.2,-0.048 2.45,0.696 3.702,0.849 3.323,0.411 7.457,0.666 11.103,0.855 1.779,0.09 3.603,0.159 5.287,0 3.126,-0.297 7.753,-0.258 12.159997,-0.855 0.331,-0.042 0.735,0.132 1.057,0 0.234,-0.09 0.648,-0.855 0.529,-0.849 0.834,-0.051 3.3,2.349 4.229,0.849 0.24,-0.387 1.055,-1.32 2.643,-0.849 0.516,0.15 0.787,0.876 1.586,0.849 1.473,-0.045 2.78,-0.72 4.23,-0.849 0.407,-0.039 0.553,1.065 1.058,0.849 0.124,-0.051 0.062,-0.792 0.528,-0.849 9.345,-1.197 21.519,0.033 31.722,0 0.099,0 0.544,-1.17 1.058,-0.852 0.2,0.12 0.015,0.753 0.528,0.852 1.062,0.198 4.155,0.669 5.816,0 4.48,-1.806 12.99,1.206 19.033,0.696 3.197,-0.27 6.26,-0.471 9.517,-0.852 2.035,-0.24 4.159,-1.65 6.873,-0.855 0.513,0.153 0.784,0.912 1.585,0.855 0.456,-0.033 1.243,-0.729 2.115,-0.855 2.639,-0.381 5.76,-1.359 9.518,-0.852 0.33,0.045 0.735,-0.129 1.056,0 0.223,0.09 0.664,0.858 0.53,0.852 1.449,0.048 2.862,-0.825 4.23,-0.852 6.706,-0.138 13.52,1.086 19.916,0.516 4.622,-0.411 9.907,-0.273 14.898,-0.786 0.876,-0.09 1.77,0.126 2.644,0 1.047,-0.15 1.427,-0.804 2.114,-0.85500002 0.946,-0.066 1.115,0.89100002 2.115,0.85500002 0.445,-0.015 1.244,-0.75 2.116,-0.85500002 0.87,-0.099 1.775,0.17400002 2.643,0 1.26,-0.246 2.468,-1.179 4.758,-0.849 1.03,0.147 1.45,0.831 2.115,0.849 2.21,0.072 4.02,-1.413 6.873,-0.849 0.925,0.18 1.133,0.834 2.115,0.849 2.358,0.042 4.594,0.51000002 7.691,0.79800002 0.387,0.036 0.575,1.059 1.057,0.855 0.156,-0.069 0.003,-0.882 0.528,-0.855 0.457,0.024 1.15,-0.21 1.587,0 0.205,0.099 0.654,0.87 0.528,0.855 1.162,0.129 1.348,-0.81 2.115,-0.855 7.025,-0.429 14.387,1.362 20.717,0.699 0.696,-0.072 1.427,0.15 2.116,0 1.172,-0.249 1.664,-2.02800002 3.172,-1.70400002 0.981,0.21 0.533,0.42600002 1.586,0 1.135,-0.456 1.373,0.78600002 2.115,0.85200002 0.435,0.042 0.829,-1.05000002 1.586,-0.85200002 0.041,0.012 0.116,0.81900002 0.529,0.85200002 0.81,0.069 2.82,-0.77400002 4.229,-0.85200002 0.442,-0.024 0.825,1.02000002 1.586,0.85200002 0.433,-0.09 0.524,-0.91200002 1.058,-0.85200002 0.425,0.048 0.889,0.73800002 1.585,0.85200002 1.488,0.255 2.52,0.168 4.758,0.852 0.033,0.012 -0.024,0.792 0,0.855 0.481,0.234 1.777,3.18 0.53,3.411 0.514,2.946 -1.215,0.963 -1.586,0.852 -2.045,-0.603 -2.842,-1.257 -5.287,-1.704 -0.482,-0.09 -1.123,0.225 -1.586,0 -0.208,-0.102 -2.937,-1.26 -4.759,0 -0.24,0.165 0.047,0.834 -0.528,0.852 -0.38,0.012 -1.3,-0.735 -2.115,-0.852 -3.633,-0.522 -8.374,0.687 -12.689,0.852 -3.622,0.141 -7.354,-0.447 -11.164,-0.246 -2.972,0.156 -6.55,-0.555 -9.555,-0.456 -6.717,0.225 -13.892,-1.344 -20.377,-0.795 -7.224,0.609 -13.971,0.441 -20.62,0.852 -1.391,0.09 -2.034,1.32 -3.173,0 -1.107,1.335 -2.673,-0.39 -3.796,-0.066 -1.225,0.354 -0.674,0.582 -2.115,0 -1.059,-0.426 -1.346,0.579 -2.643,0.855 -0.693,0.147 -1.42,-0.126 -2.115,0 -4.76,0.852 -14.412,-2.01 -21.502,-0.516 -0.037,0.003 -0.105,0.849 -0.53,0.849 -0.462,0 -0.482,-0.849 -0.529,-0.849 -3.742,-0.108 -7.57,0.669 -11.63,0.849 -0.405,0.021 -0.876,-0.849 -1.587,-0.849 -1.225,0 -1.005,1.512 -2.643,0.849 -0.21,-0.084 -0.683,-0.849 -0.53,-0.849 -0.416,0 -0.54,0.81 -1.056,0.849 -1.392,0.111 -2.783,-0.168 -4.23,0 -0.933,0.111 -2.107,0.711 -3.172,0.855 -10.275,1.401 -20.64,-0.654 -31.193,0.156 0.21,-0.018 -0.383,0.795 -0.529,0.852 -1.7,0.69 -10.127,1.0349998 -12.688,0 -0.095,-0.039 -1.289,-1.44 -1.587,-0.852 -0.773,1.524 -5.458,0.765 -7.93,0.852 0.075,0 -0.189,0.855 -0.53,0.855 -0.474,0 -1.055,-0.93 -2.642,-0.855 -1.045,0.051 -2.116,0.81 -3.172,0.855 -1.147,0.045 -2.536,-0.909 -3.7,-0.855 0.227,-0.009 -0.397,0.798 -0.53,0.855 -2.443,0.9839998 -7.714,-0.207 -11.102,0 -3.774,0.2279998 -7.659997,0.2039998 -12.159997,0.8519998 -15.257,2.19 -35.028,0.519 -51.284,0 -5.074,-0.162 -10.342,0.69 -15.333,0.852 -6.976,0.225 -13.75,0.684 -20.6180004,0 -0.854,-0.084 -0.9,-0.711 -1.587,-0.852 0.175,0.036 -0.28,1.35 -0.529,0.852 -0.443,-0.897 -1.974,-0.732 -3.7,-1.7039998 -0.592,-0.336 -2.37999995,-0.234 -2.11499995,-2.562 0.232,-2.076 0.713,-3.606 1.05699995,-4.26 z"
     fill-rule="evenodd"
     fill="#dfe1e5" />
</svg>
