<svg xmlns="http://www.w3.org/2000/svg" width="100%" height="4" viewBox="0 0 335 4">
    <path fill="#89B2C4" fill-rule="evenodd" d="M1.084 1.038c.929-.59 1.73-.761 4.23-.57.161.013.966-.06 1.057 0 .27.178 1.87.531 2.643.57C9 1.037 11.01.326 11.658.753c.857.563 4.417.157 6.874.285.832.042 1.894.266 2.643.284.412.01 2.089-.649 2.643-.284.42.275 1.4.291 3.172.284 1.165-.006 2.544.07 3.702 0 1.08-.066 1.615-.28 2.643-.284 2.214-.012 4.193.302 6.345.284 1.003-.01 2.167-.252 3.171-.284 3.173-.105 7.626.171 10.574.567.774.105 1.843-.003 2.643 0 .588.004.324-.261.53-.283.199-.022 1.418.266 2.114.283 1.264.033 2.367-.048 3.7 0 1.101.041 2.164.308 3.173.285 1.936-.045 3.693-.54 5.815-.568 1.2-.016 2.45.232 3.702.283 3.323.137 7.457.222 11.103.285 1.779.03 3.603.053 5.287 0 3.126-.099 7.753-.086 12.16-.285.331-.014.735.044 1.057 0 .234-.03.648-.285.529-.283.834-.017 3.3.783 4.229.283.24-.129 1.055-.44 2.643-.283.516.05.787.292 1.586.283 1.473-.015 2.78-.24 4.23-.283.407-.013.553.355 1.058.283.124-.017.062-.264.528-.283 9.345-.399 21.519.011 31.722 0 .099 0 .544-.39 1.058-.284.2.04.015.251.528.284 1.062.066 4.155.223 5.816 0 4.48-.602 12.99.402 19.033.232 3.197-.09 6.26-.157 9.517-.284 2.035-.08 4.159-.55 6.873-.285.513.051.784.304 1.585.285.456-.011 1.243-.243 2.115-.285 2.639-.127 5.76-.453 9.518-.284.33.015.735-.043 1.056 0 .223.03.664.286.53.284 1.449.016 2.862-.275 4.23-.284 6.706-.046 13.52.362 19.916.172 4.622-.137 9.907-.091 14.898-.262.876-.03 1.77.042 2.644 0 1.047-.05 1.427-.268 2.114-.285.946-.022 1.115.297 2.115.285.445-.005 1.244-.25 2.116-.285.87-.033 1.775.058 2.643 0 1.26-.082 2.468-.393 4.758-.283 1.03.049 1.45.277 2.115.283 2.21.024 4.02-.471 6.873-.283.925.06 1.133.278 2.115.283 2.358.014 4.594.17 7.691.266.387.012.575.353 1.057.285.156-.023.003-.294.528-.285.457.008 1.15-.07 1.587 0 .205.033.654.29.528.285 1.162.043 1.348-.27 2.115-.285 7.025-.143 14.387.454 20.717.233.696-.024 1.427.05 2.116 0 1.172-.083 1.664-.676 3.172-.568.981.07.533.142 1.586 0 1.135-.152 1.373.262 2.115.284.435.014.829-.35 1.586-.284.041.004.116.273.529.284.81.023 2.82-.258 4.229-.284.442-.008.825.34 1.586.284.433-.03.524-.304 1.058-.284.425.016.889.246 1.585.284 1.488.085 2.52.056 4.758.284.033.004-.024.264 0 .285.481.078 1.777 1.06.53 1.137.514.982-1.215.321-1.586.284-2.045-.201-2.842-.419-5.287-.568-.482-.03-1.123.075-1.586 0-.208-.034-2.937-.42-4.759 0-.24.055.047.278-.528.284-.38.004-1.3-.245-2.115-.284-3.633-.174-8.374.229-12.689.284-3.622.047-7.354-.149-11.164-.082-2.972.052-6.55-.185-9.555-.152-6.717.075-13.892-.448-20.377-.265-7.224.203-13.971.147-20.62.284-1.391.03-2.034.44-3.173 0-1.107.445-2.673-.13-3.796-.022-1.225.118-.674.194-2.115 0-1.059-.142-1.346.193-2.643.285-.693.049-1.42-.042-2.115 0-4.76.284-14.412-.67-21.502-.172-.037.001-.105.283-.53.283-.462 0-.482-.283-.529-.283-3.742-.036-7.57.223-11.63.283-.405.007-.876-.283-1.587-.283-1.225 0-1.005.504-2.643.283-.21-.028-.683-.283-.53-.283-.416 0-.54.27-1.056.283-1.392.037-2.783-.056-4.23 0-.933.037-2.107.237-3.172.285-10.275.467-20.64-.218-31.193.052.21-.006-.383.265-.529.284-1.7.23-10.127.345-12.688 0-.095-.013-1.289-.48-1.587-.284-.773.508-5.458.255-7.93.284.075 0-.189.285-.53.285-.474 0-1.055-.31-2.642-.285-1.045.017-2.116.27-3.172.285-1.147.015-2.536-.303-3.7-.285.227-.003-.397.266-.53.285-2.443.328-7.714-.069-11.102 0-3.774.076-7.66.068-12.16.284-15.257.73-35.028.173-51.284 0-5.074-.054-10.342.23-15.333.284-6.976.075-13.75.228-20.618 0-.854-.028-.9-.237-1.587-.284.175.012-.28.45-.529.284-.443-.299-1.974-.244-3.7-.568C1.55 3.2-.238 3.234.027 2.458c.232-.692.713-1.202 1.057-1.42z"/>
</svg>
